<?xml version="1.0" standalone="no"?>
<!DOCTYPE svg PUBLIC "-//W3C//DTD SVG 20010904//EN"
 "http://www.w3.org/TR/2001/REC-SVG-20010904/DTD/svg10.dtd">
<svg version="1.0" xmlns="http://www.w3.org/2000/svg"
 width="2000.000000pt" height="2000.000000pt" viewBox="0 0 2000.000000 2000.000000"
 preserveAspectRatio="xMidYMid meet">

<g transform="translate(0.000000,2000.000000) scale(0.100000,-0.100000)"
fill="#000000" stroke="none">
<path d="M14874 18646 c-78 -18 -187 -64 -273 -115 -91 -54 -554 -443 -1231
-1035 -482 -422 -684 -610 -862 -804 -72 -77 -78 -82 -103 -72 -50 19 -260 68
-363 86 -77 12 -138 15 -235 11 -116 -4 -149 -10 -277 -47 -83 -24 -187 -46
-243 -52 -124 -13 -385 2 -622 36 -365 53 -447 60 -640 60 -165 -1 -232 -7
-515 -45 -317 -42 -332 -43 -595 -43 l-270 0 -160 42 c-141 37 -173 42 -270
42 -169 0 -383 -30 -557 -78 l-67 -19 -32 46 c-18 25 -139 152 -269 282 -212
213 -299 289 -905 795 -833 694 -964 796 -1112 858 -130 55 -273 70 -379 42
-182 -48 -381 -247 -514 -514 -82 -163 -175 -440 -215 -635 -47 -236 -64 -676
-36 -952 40 -399 111 -771 192 -1001 29 -84 113 -262 142 -304 12 -17 7 -31
-35 -116 -64 -132 -105 -248 -123 -351 -20 -115 -20 -351 1 -451 18 -87 104
-412 169 -637 23 -82 56 -200 71 -261 l28 -111 -53 -64 c-30 -35 -161 -175
-292 -312 -331 -344 -472 -525 -638 -819 -190 -336 -316 -683 -420 -1155 -106
-480 -137 -764 -111 -992 10 -86 45 -211 60 -211 7 0 77 154 149 330 42 102
98 195 177 295 63 80 84 98 84 75 0 -6 -23 -117 -51 -248 -73 -342 -78 -374
-90 -615 -13 -247 -3 -504 31 -772 40 -326 92 -556 198 -885 38 -118 79 -254
92 -302 30 -113 45 -115 34 -5 -5 45 -8 170 -8 277 2 223 18 331 83 540 82
268 166 461 264 609 l62 95 11 -160 c22 -305 52 -461 154 -804 46 -155 145
-435 204 -580 57 -138 200 -420 214 -420 11 0 13 8 7 33 -6 26 -23 455 -19
465 7 15 145 -264 245 -494 118 -275 244 -526 407 -809 200 -348 263 -471 397
-775 65 -146 121 -269 125 -274 5 -5 12 8 16 29 7 42 -3 461 -16 663 -12 178
-28 448 -35 602 l-5 125 24 -36 c59 -86 202 -399 222 -485 3 -16 17 -54 31
-86 26 -60 56 -79 82 -53 18 17 55 198 77 369 9 72 18 133 21 136 15 16 125
-208 206 -420 86 -228 167 -410 332 -750 173 -357 234 -495 299 -671 59 -164
156 -497 163 -562 12 -108 34 -93 48 33 21 195 138 534 205 595 17 16 21 13
59 -43 22 -33 93 -161 157 -284 64 -122 182 -344 262 -493 81 -148 161 -305
178 -348 37 -92 43 -83 44 63 l1 95 39 -75 c21 -42 68 -148 105 -235 37 -88
111 -259 165 -380 91 -204 119 -277 134 -347 13 -57 26 -26 26 60 0 78 20 291
35 380 l6 33 52 -83 c29 -46 170 -243 313 -438 483 -658 611 -860 809 -1273
31 -64 59 -117 61 -117 2 0 20 33 40 73 124 247 299 541 467 782 113 162 811
1065 824 1065 3 0 2 -12 -1 -28 -4 -15 -11 -99 -16 -187 -5 -88 -12 -191 -16
-230 -9 -95 4 -79 60 75 46 129 173 417 337 765 93 199 94 199 101 160 4 -22
7 -87 7 -145 1 -62 5 -100 10 -95 5 6 22 42 39 80 16 39 105 203 198 365 93
163 234 416 314 563 l145 268 39 -43 c84 -93 139 -264 173 -527 9 -77 20 -141
23 -141 3 0 23 73 44 163 21 89 71 261 111 382 124 375 236 646 533 1280 123
265 227 514 247 598 4 15 10 29 14 32 4 2 27 -103 51 -233 23 -130 47 -247 53
-259 11 -24 72 -43 86 -27 5 5 18 50 30 99 28 113 89 267 145 365 24 41 60
108 81 149 21 43 40 69 44 63 9 -15 5 -306 -8 -539 -6 -103 -15 -327 -21 -498
-6 -170 -13 -329 -16 -352 -4 -27 -2 -43 4 -43 11 0 19 16 137 275 126 277
281 590 454 917 171 325 320 633 446 920 41 95 84 191 95 213 l21 40 -6 -138
c-4 -76 -13 -181 -21 -234 -17 -117 -17 -120 -3 -106 14 14 222 482 304 685
157 387 251 769 271 1105 6 96 9 111 21 101 32 -26 158 -229 209 -335 57 -118
161 -418 195 -559 26 -110 38 -279 28 -394 -21 -257 -22 -267 -5 -246 9 11 16
29 16 40 0 23 61 270 115 471 101 372 157 747 175 1179 18 422 -8 712 -95
1083 -36 152 -34 159 25 95 103 -110 236 -351 310 -559 l38 -108 18 40 c48
112 64 265 45 440 -59 545 -166 1003 -338 1440 -175 443 -440 842 -868 1305
-176 191 -275 309 -275 330 0 8 9 39 20 68 11 30 67 241 124 470 111 447 133
574 121 717 -14 167 -72 374 -155 553 l-43 92 20 23 c30 32 48 71 103 222 139
378 235 842 272 1316 32 422 -109 1065 -310 1406 -96 163 -231 314 -348 389
-114 73 -275 106 -390 80z m-8744 -988 c80 -53 206 -145 280 -204 170 -136
496 -460 626 -624 96 -120 214 -289 214 -305 0 -9 19 -26 -435 396 -187 173
-448 414 -580 534 -132 120 -280 257 -330 303 l-90 85 85 -44 c47 -24 150 -87
230 -141z m8005 124 c-33 -31 -193 -178 -355 -326 -162 -148 -443 -408 -625
-576 -181 -169 -346 -320 -365 -336 l-34 -29 23 40 c14 22 57 85 97 140 253
350 605 689 979 944 114 78 321 202 335 201 3 -1 -22 -26 -55 -58z m-8906
-107 c63 -60 175 -179 249 -264 284 -323 476 -504 588 -554 40 -18 42 -22 63
-98 56 -206 159 -376 322 -534 57 -56 131 -121 164 -145 54 -41 58 -45 35 -48
-14 -1 -68 8 -120 22 -52 13 -96 23 -96 22 -2 -2 127 -298 169 -389 48 -103
150 -257 220 -333 31 -34 57 -63 57 -65 0 -2 -39 -5 -86 -7 -156 -6 -326 -64
-388 -132 -45 -50 -60 -99 -53 -175 9 -116 117 -295 237 -392 32 -26 59 -56
59 -66 1 -9 -35 -53 -79 -97 -62 -61 -101 -89 -170 -124 -127 -63 -211 -80
-377 -74 -74 3 -137 8 -140 12 -11 11 68 119 145 198 50 51 90 83 118 94 24 9
41 20 38 25 -3 5 -35 9 -72 9 -122 0 -290 62 -315 117 -11 24 -9 28 28 60 21
18 61 41 87 51 26 9 48 20 48 25 0 4 -20 48 -45 97 -25 49 -56 124 -70 165
-23 67 -25 82 -16 131 23 120 103 215 240 282 l76 37 129 -1 129 -1 -39 34
c-49 41 -273 157 -424 218 -298 122 -501 268 -574 414 -70 139 -57 300 31 383
43 41 74 48 221 49 178 1 214 10 107 27 -150 23 -333 135 -432 263 -38 49
-136 230 -128 237 1 2 72 -25 156 -59 85 -34 161 -64 169 -67 8 -3 -16 28 -53
69 -38 40 -106 124 -152 184 -151 201 -222 350 -232 484 l-6 75 34 -25 c19
-13 85 -73 148 -134z m9730 93 c-26 -196 -163 -428 -394 -667 -63 -66 -81 -89
-60 -79 17 8 60 22 97 31 37 10 108 35 159 57 51 22 95 38 97 35 9 -9 -29 -93
-69 -156 -103 -159 -287 -295 -459 -339 -25 -6 -52 -14 -60 -17 -25 -10 38
-21 136 -22 117 -1 188 -22 235 -70 72 -71 76 -181 13 -311 -51 -104 -207
-258 -355 -349 -133 -83 -335 -186 -469 -239 -106 -43 -190 -87 -190 -100 0
-4 39 -8 88 -8 196 -2 374 -99 440 -242 38 -83 40 -141 7 -237 -29 -88 -50
-127 -104 -194 -28 -35 -33 -45 -21 -49 41 -14 175 -89 183 -103 17 -28 -18
-68 -86 -100 -73 -34 -145 -49 -233 -49 -35 0 -64 -4 -64 -8 0 -4 20 -18 45
-30 25 -12 107 -81 185 -154 128 -122 138 -133 117 -141 -12 -5 -101 -7 -197
-5 -192 5 -231 14 -374 85 -73 37 -172 123 -208 181 l-21 34 68 61 c87 78 158
186 190 289 31 98 31 149 1 213 -58 125 -190 183 -516 228 -8 1 11 20 44 42
114 75 224 236 301 437 23 63 61 151 84 195 22 45 37 84 33 86 -4 3 -50 -3
-102 -13 -149 -29 -156 -26 -65 25 246 139 448 418 487 672 11 66 15 76 37 85
145 57 195 91 329 222 154 150 298 311 438 488 73 93 230 268 240 268 0 0 -3
-24 -7 -52z m-10182 -819 c28 -16 113 -77 189 -135 76 -57 153 -114 172 -126
l34 -21 -28 -16 c-18 -10 -53 -15 -94 -15 -152 1 -300 120 -350 281 -11 36
-20 67 -20 70 0 8 45 -9 97 -38z m10548 4 c-34 -183 -235 -342 -400 -317 -93
14 -91 18 95 158 150 113 277 195 304 196 4 0 5 -17 1 -37z m-10261 -978 c34
-33 95 -83 136 -111 86 -59 340 -201 444 -249 70 -33 70 -34 41 -42 -55 -15
-186 -8 -270 16 -207 57 -380 182 -450 324 -39 81 -58 164 -49 215 l7 34 40
-64 c22 -34 67 -90 101 -123z m10036 126 c0 -165 -124 -340 -308 -434 -173
-88 -344 -125 -447 -95 l-40 11 50 22 c92 41 399 216 479 273 88 64 182 160
221 227 15 25 31 45 36 45 5 0 9 -22 9 -49z m-7973 -473 c82 -30 170 -54 413
-113 252 -60 389 -101 496 -150 85 -39 199 -111 232 -147 22 -25 21 -24 -90
13 -62 20 -228 63 -368 93 -294 65 -421 100 -539 150 -47 20 -81 32 -75 27 5
-5 88 -51 184 -101 309 -163 421 -239 560 -379 134 -134 223 -281 261 -429 28
-111 24 -115 -26 -28 -86 151 -203 286 -355 411 -66 54 -214 154 -481 325
-154 98 -287 222 -333 310 -16 30 -38 65 -50 78 -19 22 -16 21 49 -8 39 -18
94 -41 122 -52z m5933 63 c-5 -11 -14 -22 -19 -26 -6 -3 -20 -27 -33 -53 -37
-77 -194 -225 -331 -312 -547 -347 -697 -479 -839 -737 -22 -40 -41 -73 -43
-73 -1 0 1 21 6 48 32 175 125 335 286 495 139 137 247 208 585 387 161 85
204 114 98 66 -113 -51 -242 -89 -475 -141 -275 -61 -381 -88 -488 -124 -101
-34 -101 -26 -3 44 149 105 277 153 674 251 295 73 446 120 542 170 55 28 53
28 40 5z m-7617 -681 c0 -49 -7 -112 -17 -150 -24 -90 -98 -242 -189 -386 -87
-140 -144 -250 -180 -349 -14 -38 -29 -79 -33 -90 -4 -12 15 1 47 31 69 66
343 264 364 264 4 0 -14 -24 -40 -54 -101 -118 -187 -299 -304 -641 -23 -65
-43 -120 -45 -122 -1 -2 -28 34 -58 80 -39 59 -67 89 -91 100 -41 20 -88 22
-105 5 -9 -9 -12 -5 -12 17 0 17 -12 73 -26 125 -38 141 -44 358 -15 535 43
262 147 696 172 719 12 12 12 11 -17 -204 -30 -228 -8 -502 59 -708 l21 -67 8
80 c15 155 69 284 211 505 103 160 179 308 202 395 l19 69 14 -35 c9 -20 15
-68 15 -119z m9177 122 c0 -62 73 -217 188 -398 181 -285 221 -381 230 -537 2
-54 6 -96 8 -94 2 2 22 96 43 208 51 260 58 365 36 534 -24 193 -28 253 -16
234 23 -36 120 -416 153 -599 8 -48 13 -156 13 -305 0 -216 -2 -237 -28 -345
-15 -63 -29 -120 -32 -126 -2 -9 -16 -9 -49 -1 -63 14 -82 2 -142 -93 -27 -43
-52 -76 -55 -72 -3 4 -20 48 -37 99 -65 188 -231 518 -329 654 -18 26 -33 50
-33 53 0 15 207 -117 295 -187 28 -23 67 -56 88 -76 20 -19 37 -32 37 -27 0
33 -95 237 -162 347 -134 222 -184 315 -213 402 -33 98 -43 221 -25 296 12 50
30 70 30 33z m-3546 -823 c-169 -502 -281 -936 -353 -1375 -30 -182 -75 -542
-86 -689 -3 -44 -8 -102 -11 -130 -4 -44 0 -38 34 60 111 320 226 498 390 602
60 38 220 117 262 128 20 5 15 -3 -27 -42 -95 -89 -183 -230 -183 -295 l0 -32
63 61 c293 288 820 501 1021 412 26 -11 46 -25 44 -31 -2 -5 -20 -16 -41 -23
-20 -7 -69 -37 -109 -68 -40 -30 -83 -60 -95 -66 -49 -25 -21 -31 145 -31 229
0 329 -28 414 -117 30 -31 83 -122 75 -129 -1 -1 -29 2 -62 7 -130 20 -475
-36 -661 -106 -38 -14 -119 -52 -179 -84 l-110 -59 -170 -5 c-189 -5 -247 -17
-359 -74 -104 -52 -234 -156 -287 -232 -45 -62 -139 -161 -154 -161 -7 0 -18
7 -25 15 -16 20 -46 201 -61 369 -15 165 -6 569 16 726 71 520 234 1006 468
1395 61 102 90 145 94 141 2 -1 -22 -76 -53 -167z m-2098 36 c255 -423 428
-961 485 -1510 19 -180 16 -541 -6 -715 -10 -80 -18 -168 -19 -196 -2 -54 -17
-84 -44 -84 -9 0 -74 58 -146 129 -189 185 -299 249 -465 270 -100 13 -312 -1
-366 -23 -37 -16 -39 -15 -84 11 -25 15 -75 46 -110 71 -192 131 -395 184
-708 186 -84 1 -153 5 -153 10 0 24 74 138 122 185 97 98 212 135 399 129 93
-3 106 -1 99 12 -12 22 -58 62 -112 98 -25 18 -56 44 -68 59 -25 32 -21 35 61
53 56 12 57 12 235 -48 403 -136 618 -245 762 -385 56 -55 62 -59 62 -37 -1
59 -84 209 -168 302 -19 21 -31 38 -27 38 17 0 215 -102 275 -142 169 -111
293 -289 361 -513 15 -50 18 -55 18 -28 2 55 -28 327 -60 548 -70 488 -184
957 -364 1499 -36 108 -65 199 -65 203 0 15 22 -17 86 -122z m-2455 -632 c-48
-312 -53 -382 -58 -778 l-6 -390 -19 44 c-125 291 -136 668 -31 1006 30 98
126 297 131 273 2 -10 -6 -80 -17 -155z m7012 62 c145 -293 185 -672 106 -995
-20 -79 -64 -206 -78 -222 -3 -4 -6 145 -7 330 0 357 -10 487 -60 820 -13 89
-24 166 -24 169 0 17 22 -19 63 -102z m596 -315 c62 -121 98 -222 171 -490 33
-118 73 -255 90 -304 16 -49 28 -91 26 -93 -2 -2 -29 24 -60 58 -94 105 -173
277 -230 505 -23 92 -106 469 -106 482 0 20 67 -77 109 -158z m-8184 -76 c-64
-298 -106 -439 -169 -569 -50 -101 -153 -245 -176 -245 -5 0 7 46 26 103 19
56 59 193 89 304 65 237 103 349 156 458 40 82 107 181 115 172 3 -3 -16 -103
-41 -223z m-591 -293 c3 -4 -14 -14 -37 -21 -149 -44 -336 -214 -466 -423 -38
-61 -68 -114 -66 -116 2 -2 19 2 37 8 27 10 252 61 268 61 3 0 -52 -58 -122
-128 -121 -123 -204 -233 -258 -342 -12 -25 -36 -59 -52 -77 l-31 -32 44 -11
c92 -23 235 -73 248 -86 13 -12 10 -15 -20 -28 -19 -7 -69 -28 -112 -46 -95
-39 -174 -96 -249 -180 -51 -55 -158 -200 -158 -213 0 -3 26 6 58 18 55 22
238 45 358 45 l46 0 -53 -47 c-224 -195 -453 -495 -597 -780 -124 -246 -183
-429 -257 -793 -3 -14 16 20 43 75 63 130 144 260 226 361 66 82 235 249 243
240 3 -2 -33 -69 -80 -148 -222 -376 -355 -653 -523 -1083 l-39 -99 -3 144
c-5 239 36 637 89 863 50 213 162 471 282 649 l65 96 -92 -39 c-96 -40 -447
-149 -479 -149 -29 0 -19 11 78 92 50 41 110 97 134 124 69 77 156 216 230
369 87 178 196 443 187 453 -4 4 -43 9 -86 10 -83 4 -168 -14 -227 -48 -18
-11 -33 -16 -33 -12 0 4 36 50 80 101 89 105 173 225 245 351 149 262 348 504
520 632 131 99 292 171 451 202 85 17 101 18 108 7z m9518 -32 c257 -84 418
-194 584 -399 62 -77 367 -495 443 -608 24 -35 72 -99 107 -143 55 -68 74 -99
60 -99 -2 0 -30 12 -62 27 -51 24 -71 28 -149 27 -49 0 -107 -4 -128 -8 -36
-7 -38 -9 -32 -34 3 -15 55 -119 114 -232 59 -113 132 -257 163 -320 80 -163
147 -247 336 -413 24 -21 42 -40 40 -43 -8 -7 -443 124 -517 157 -24 10 -45
19 -47 19 -1 0 26 -43 62 -97 185 -276 289 -588 338 -1013 22 -186 41 -583 29
-604 -7 -12 -28 33 -92 191 -165 410 -251 581 -558 1106 -17 29 46 -26 133
-115 153 -157 251 -297 341 -483 23 -49 43 -86 43 -81 0 20 -63 289 -91 386
-85 293 -257 618 -464 875 -88 110 -279 312 -319 336 l-28 17 63 7 c82 8 224
-10 314 -40 38 -13 71 -22 73 -20 1 1 -20 36 -47 77 -96 144 -257 271 -426
339 -44 17 -81 33 -83 34 -9 8 142 74 204 89 105 27 100 25 76 41 -11 8 -48
72 -82 143 -60 123 -66 131 -179 243 -64 63 -131 128 -150 143 -18 15 -32 28
-30 30 9 9 179 -23 222 -42 26 -12 47 -18 47 -15 0 11 -72 137 -128 223 -63
98 -213 251 -290 295 -96 56 -53 58 110 4z m-849 -1020 c79 -228 111 -434 111
-709 0 -285 -36 -508 -119 -740 -32 -89 -96 -232 -102 -227 -2 3 8 114 21 248
38 374 50 635 41 944 -7 245 -19 452 -23 382 -1 -15 -9 -61 -17 -103 -53 -256
-181 -484 -385 -684 -210 -208 -432 -331 -832 -461 -139 -46 -298 -104 -353
-129 -55 -26 -127 -57 -160 -70 -303 -119 -480 -391 -409 -629 23 -80 68 -121
233 -213 132 -75 157 -94 257 -193 200 -198 283 -365 321 -650 l6 -50 8 40
c20 107 31 310 26 450 -11 239 -49 458 -121 690 -39 122 -29 117 44 -27 131
-254 188 -478 197 -773 10 -321 -52 -605 -194 -890 -85 -170 -175 -295 -315
-441 -76 -79 -78 -83 -78 -130 0 -219 -79 -462 -205 -633 -202 -275 -594 -563
-896 -659 -97 -31 -226 -58 -235 -49 -3 2 18 19 46 37 83 53 215 231 286 384
57 125 212 626 202 656 -2 5 -39 -20 -83 -55 -108 -89 -221 -166 -264 -181
-20 -7 -63 -14 -96 -14 -33 -1 -90 -9 -127 -19 l-66 -17 53 61 c121 139 216
299 271 460 38 109 38 241 0 404 -27 122 -95 279 -138 318 -42 39 -139 92
-217 117 -188 63 -309 75 -736 77 -378 2 -452 -5 -635 -58 -164 -47 -261 -106
-301 -185 -25 -50 -64 -198 -84 -318 -37 -232 -7 -363 135 -595 77 -126 122
-189 168 -237 26 -27 44 -48 41 -48 -3 0 -55 7 -116 15 -177 23 -294 77 -415
193 -32 30 -61 53 -64 49 -8 -8 32 -233 61 -345 76 -287 254 -570 418 -662 60
-34 72 -50 35 -50 -42 0 -312 59 -393 85 -230 75 -455 223 -661 437 -226 235
-334 469 -354 767 l-10 145 -44 46 c-137 142 -237 288 -326 472 -234 486 -250
1024 -45 1514 38 89 120 244 129 244 2 0 -7 -35 -20 -77 -143 -458 -166 -897
-71 -1313 l13 -55 6 140 c13 269 97 481 262 653 33 36 135 124 226 196 233
186 259 222 260 354 0 153 -82 316 -197 392 -128 84 -231 123 -623 235 -265
76 -345 106 -500 186 -421 219 -729 603 -792 990 -14 87 -28 111 -28 49 -1
-25 -5 -146 -10 -270 -13 -323 3 -682 46 -1076 23 -203 18 -211 -42 -69 -81
190 -129 376 -154 594 -16 138 -8 505 14 626 21 113 70 298 97 367 38 98 72
168 80 168 5 0 9 -18 9 -39 0 -123 65 -344 151 -512 156 -302 431 -560 788
-739 l64 -32 -36 49 c-52 71 -103 178 -147 312 -49 144 -64 276 -55 466 6 123
44 495 52 504 6 8 32 -32 123 -191 124 -218 198 -336 238 -380 76 -84 269
-212 422 -278 220 -96 397 -137 760 -175 430 -45 613 -95 790 -215 30 -21 64
-47 74 -59 18 -20 17 -20 -41 4 -149 60 -326 90 -623 105 -113 5 -245 12 -295
16 l-90 5 75 -33 c221 -99 305 -180 345 -333 35 -137 16 -228 -96 -441 l-80
-153 -15 -138 c-20 -193 -38 -292 -89 -488 -48 -183 -87 -383 -105 -535 -6
-52 -13 -103 -16 -112 -3 -12 0 -18 9 -18 9 0 33 36 56 84 23 46 72 121 109
167 201 250 449 351 749 305 57 -8 118 -23 135 -33 l33 -17 -60 -7 c-78 -7
-122 -22 -220 -72 -75 -39 -165 -112 -165 -134 0 -6 55 -13 138 -17 283 -14
498 -44 737 -102 155 -37 272 -34 514 16 231 48 386 68 579 77 78 3 142 10
142 15 0 19 -106 121 -169 162 -37 24 -97 55 -136 69 -38 14 -63 26 -55 27 8
0 53 5 100 10 217 26 345 8 503 -72 199 -99 323 -220 437 -421 18 -32 34 -56
36 -55 2 2 -4 64 -12 138 -16 154 -44 278 -104 465 -65 206 -110 427 -110 547
0 72 -9 95 -91 241 -100 177 -131 256 -137 350 -4 63 -1 88 18 140 30 82 77
154 131 201 39 34 203 122 314 169 35 14 36 16 10 12 -77 -11 -259 -26 -454
-35 -319 -16 -507 -48 -650 -111 -24 -10 -46 -17 -48 -15 -9 9 130 103 212
142 161 77 304 110 633 144 357 38 503 66 692 137 192 72 418 205 486 287 18
23 103 149 189 281 163 252 222 332 235 318 12 -12 30 -257 30 -401 0 -293
-82 -577 -222 -767 -64 -87 -64 -87 -33 -75 58 22 269 134 342 182 262 171
471 394 592 636 78 153 120 292 142 462 l12 95 32 -70 c18 -38 44 -104 58
-146z m-1744 -5 c71 -21 110 -58 126 -121 32 -121 -35 -228 -185 -296 -100
-46 -158 -57 -300 -57 -109 0 -263 15 -283 27 -4 3 3 19 16 36 13 18 47 69 75
115 28 46 70 105 93 132 126 149 300 211 458 164z m-3493 -31 c92 -44 185
-144 307 -328 119 -179 192 -259 287 -309 l64 -34 -38 -7 c-100 -19 -230 29
-326 121 -67 64 -133 156 -210 294 -70 125 -124 205 -174 259 l-41 44 37 -6
c20 -3 62 -18 94 -34z m2532 -1 c-48 -53 -104 -137 -176 -264 -126 -222 -211
-320 -328 -378 -71 -35 -184 -52 -219 -33 -14 8 -7 15 41 39 87 44 167 131
287 310 144 217 236 307 355 350 69 24 78 18 40 -24z m-3437 14 c76 -17 153
-52 223 -105 42 -31 266 -294 266 -312 0 -4 -26 -10 -57 -14 -32 -3 -94 -13
-138 -20 -203 -34 -365 -28 -464 18 -60 28 -155 119 -182 173 -54 112 8 234
136 265 50 12 146 10 216 -5z m6794 -466 c15 -47 110 -247 210 -445 199 -395
253 -531 281 -717 30 -196 6 -423 -72 -671 -19 -61 -42 -137 -50 -167 -16 -56
-44 -101 -44 -69 0 67 -30 210 -80 381 -76 261 -82 278 -90 278 -4 0 -10 -73
-13 -162 -8 -222 -53 -690 -78 -816 -61 -308 -184 -529 -382 -687 -98 -78
-112 -82 -91 -22 23 63 64 352 74 522 8 136 4 285 -8 285 -10 0 -433 -358
-737 -625 -88 -77 -153 -129 -144 -115 181 286 274 485 460 988 l9 22 50 -27
51 -28 33 38 c54 61 96 150 112 239 9 46 19 86 22 90 4 4 50 -69 101 -163 52
-93 98 -166 101 -162 4 5 14 72 24 151 9 79 35 252 57 385 54 322 62 517 29
687 -12 63 -39 166 -59 228 -23 66 -33 111 -26 108 40 -15 369 -263 402 -303
75 -89 158 -237 209 -368 31 -80 30 -52 -2 65 -31 114 -79 236 -169 430 -201
435 -256 611 -254 817 l1 98 22 -90 c12 -49 35 -128 51 -175z m-9259 144 c-14
-209 -63 -367 -208 -684 -178 -387 -224 -516 -253 -710 -22 -139 -18 -184 6
-70 28 135 88 304 140 396 56 100 174 220 293 300 50 32 115 78 145 101 30 24
56 41 58 40 1 -2 -8 -30 -20 -63 -80 -204 -92 -395 -46 -749 10 -82 28 -235
39 -340 11 -104 27 -236 35 -293 8 -56 15 -107 15 -112 0 -21 30 -8 60 27 30
34 104 174 144 273 l18 45 16 -35 c9 -19 31 -67 49 -107 47 -102 130 -223 153
-223 10 0 22 5 25 10 18 29 35 -5 110 -220 83 -239 188 -458 330 -690 84 -137
82 -140 -21 -39 -55 53 -139 127 -189 164 -176 133 -302 242 -468 404 -92 90
-170 161 -175 157 -4 -4 -7 -101 -6 -214 1 -180 5 -233 32 -402 17 -108 36
-209 42 -224 6 -16 8 -31 5 -34 -8 -9 -87 49 -154 112 -108 104 -181 221 -235
377 -38 112 -52 182 -81 399 -15 107 -40 276 -56 375 -16 99 -33 242 -36 318
-3 75 -9 137 -13 137 -7 0 -78 -220 -106 -330 -9 -36 -22 -123 -28 -195 l-12
-130 -14 43 c-7 23 -16 38 -20 32 -12 -20 -99 246 -126 388 -70 360 -18 628
201 1052 233 450 298 600 326 754 18 96 33 71 25 -40z m4854 -1714 c221 -28
423 -86 608 -177 62 -30 111 -57 109 -59 -3 -3 -60 5 -128 16 -272 47 -420 61
-701 67 -377 8 -622 -14 -983 -87 -81 -16 -153 -30 -159 -30 -6 0 21 19 59 41
188 110 455 197 700 228 101 12 396 13 495 1z m-5569 -579 c6 10 9 3 9 -21 0
-51 26 -188 56 -299 54 -200 150 -411 387 -849 253 -470 355 -749 376 -1030 4
-53 4 -126 1 -162 l-5 -65 -19 105 c-47 266 -155 527 -406 985 -219 400 -343
690 -381 898 -7 37 -14 65 -16 63 -2 -2 -16 -70 -31 -152 -25 -138 -27 -170
-27 -417 l0 -269 -37 79 c-50 103 -78 216 -84 338 -7 123 10 234 66 435 22 80
53 196 68 258 15 62 28 108 31 101 2 -8 6 -7 12 2z m10635 -18 c8 -36 67 -263
112 -428 34 -124 36 -137 36 -300 1 -138 -3 -182 -18 -235 -21 -71 -93 -236
-101 -229 -2 3 0 59 6 125 14 157 4 340 -30 549 -22 131 -30 163 -36 140 -81
-334 -153 -506 -421 -995 -130 -238 -212 -408 -271 -560 -48 -125 -99 -309
-109 -396 -4 -30 -11 -57 -17 -61 -6 -4 -8 45 -5 143 12 327 105 591 403 1139
281 516 379 771 420 1088 7 52 21 62 31 20z m-1281 -1257 c95 -204 121 -332
112 -545 -7 -152 -25 -238 -86 -409 -52 -146 -162 -405 -169 -398 -3 3 -4 36
-3 73 4 131 -62 199 -203 210 -91 8 -142 -18 -207 -106 -74 -99 -154 -269
-188 -396 l-29 -110 -2 450 -2 450 -19 -85 c-42 -187 -94 -317 -268 -670 -194
-392 -265 -596 -278 -803 -3 -54 -10 -94 -14 -90 -29 31 -38 270 -14 404 35
199 89 337 285 724 87 171 178 362 203 425 39 98 99 307 100 348 1 25 23 5 69
-64 47 -68 147 -174 166 -174 24 0 39 98 57 383 l7 97 51 -27 c71 -39 149
-119 185 -192 l31 -62 46 78 c62 107 100 202 121 302 16 84 14 144 -13 265
-11 54 18 17 62 -78z m-7970 -33 c-9 -170 6 -241 82 -392 32 -63 63 -116 69
-118 5 -2 17 11 26 29 9 18 34 56 57 84 43 55 148 141 158 131 3 -4 14 -75 25
-159 20 -162 38 -236 70 -289 l20 -33 19 25 c46 56 121 173 131 200 5 16 13
29 17 29 4 0 14 -33 21 -72 30 -169 99 -338 301 -733 190 -372 250 -531 280
-744 14 -98 7 -256 -14 -321 l-15 -45 -1 51 c-1 66 -26 208 -52 304 -35 127
-85 243 -239 560 -81 168 -164 350 -184 405 -20 55 -41 109 -46 120 -8 18 -9
17 -5 -5 2 -14 7 -149 10 -300 3 -151 9 -293 12 -315 10 -66 -7 -33 -38 77
-35 125 -122 303 -186 383 -61 75 -117 105 -195 105 -126 0 -197 -72 -214
-218 -3 -34 -10 -64 -14 -67 -9 -6 -121 209 -153 295 -87 233 -120 545 -78
745 16 75 128 395 139 395 2 0 1 -57 -3 -127z m2500 -2065 c24 -32 110 -187
191 -345 81 -159 185 -357 231 -442 45 -85 81 -156 79 -158 -8 -8 -245 178
-334 262 -104 98 -190 220 -271 381 -70 140 -98 251 -126 499 l-5 50 96 -95
c52 -52 115 -121 139 -152z m3070 -20 c-33 -166 -109 -342 -208 -488 -93 -136
-359 -381 -453 -417 -12 -4 7 39 59 139 42 80 124 245 181 367 173 367 223
450 335 561 l96 95 3 -90 c2 -54 -3 -121 -13 -167z m-3835 -9 c10 -57 37 -207
60 -334 50 -274 119 -618 194 -960 30 -137 54 -251 52 -253 -6 -5 -72 119
-115 216 -162 368 -255 848 -237 1222 6 137 16 224 23 217 2 -2 12 -51 23
-108z m4418 -114 c9 -355 -41 -677 -158 -1020 -44 -129 -183 -428 -188 -404
-1 9 29 159 67 335 80 365 150 721 212 1072 30 171 46 238 52 226 5 -9 12
-103 15 -209z m-1556 -27 c96 -168 142 -308 142 -433 0 -129 -36 -230 -127
-351 -38 -50 -115 -119 -123 -111 -2 1 4 24 13 51 14 40 14 62 5 136 -12 97
-37 156 -79 189 -39 32 -64 23 -93 -30 -62 -114 -77 -111 -198 40 -53 65 -86
54 -147 -51 -15 -27 -31 -51 -37 -54 -18 -12 -59 20 -109 83 -63 80 -84 83
-127 16 -17 -27 -36 -67 -43 -90 -7 -24 -18 -43 -26 -43 -33 0 -93 43 -127 90
-24 33 -43 50 -54 48 -25 -5 -79 -119 -88 -185 -8 -66 6 -133 37 -175 11 -16
15 -28 9 -28 -52 0 -154 115 -214 239 -36 76 -41 94 -44 175 -2 58 2 118 12
164 15 74 133 353 151 359 6 2 18 -47 28 -113 19 -122 44 -202 77 -244 25 -33
34 -22 58 68 11 41 24 78 30 84 6 6 20 -10 40 -44 50 -88 91 -138 112 -138 24
0 65 60 75 109 l7 34 24 -50 c25 -51 83 -103 117 -103 26 0 55 35 67 82 6 24
13 49 16 57 3 8 19 -9 40 -45 48 -80 62 -94 95 -94 27 0 69 39 69 64 0 6 5 18
10 26 8 12 18 6 59 -34 l49 -48 17 26 c26 39 44 96 45 139 0 20 4 37 9 37 12
0 57 -61 78 -106 33 -72 45 -68 73 22 15 50 20 94 20 180 0 63 4 114 8 114 4
0 24 -28 44 -62z m-1486 -1114 c390 -179 764 -240 1094 -179 137 26 223 52
423 131 104 41 190 74 192 74 1 0 6 -26 9 -57 4 -32 14 -96 23 -143 14 -80 14
-182 0 -197 -4 -3 -22 11 -41 33 -34 39 -34 39 -108 38 -105 0 -158 -29 -299
-160 -128 -119 -214 -180 -265 -190 -93 -17 -158 29 -217 156 -38 79 -41 83
-50 60 -58 -146 -114 -220 -163 -220 -53 0 -136 58 -292 203 -99 92 -185 143
-262 153 -38 5 -54 1 -104 -25 -32 -17 -62 -31 -68 -31 -6 0 -8 22 -6 53 8 99
42 337 49 337 4 0 42 -16 85 -36z"/>
</g>
</svg>
